# xmcd CD database file
#
# Track frame offsets:
#	150
#	11701
#	41431
#	60364
#	86152
#	117317
#	142032
#	168892
#	184272
#	207733
#
# Disc length: 3040 seconds
#
# Revision: 0
# Processed by: cddbd v1.5.1PL0 Copyright (c) Steve Scherf et al.
# Submitted via: CDex 1.50
#
DISCID=8c0bde0a
DTITLE=HI-TIDE HARRIS - CELEBRATING WITH HI-TIDE HARRIS RECORDED LIVE AT MEDIA STUDIO 78 Apr.27
DYEAR=1978
DGENRE=Blues
TTITLE0=HI-TIDE HARRIS - THE GENTLEMAN'S BLUES
TTITLE1=HI-TIDE HARRIS - THE CELEBTATING BLUES
TTITLE2=HI-TIDE HARRIS - BLOOM DUSTER
TTITLE3=HI-TIDE HARRIS - PERSON TU PERSON
TTITLE4=HI-TIDE HARRIS - REGGAE BLUES
TTITLE5=HI-TIDE HARRIS - THE THINGS THAT I USED TO DO
TTITLE6=HI-TIDE HARRIS - I NEED YOUR LOVE SO BAD
TTITLE7=HI-TIDE HARRIS - SAVAGE LOVER
TTITLE8=HI-TIDE HARRIS - THE SKY IS CRYING
TTITLE9=HI-TIDE HARRIS - BISHOP'S BLUES
EXTD=YEAR: 1978
EXTT0=
EXTT1=
EXTT2=
EXTT3=
EXTT4=
EXTT5=
EXTT6=
EXTT7=
EXTT8=
EXTT9=
PLAYORDER=
